<svg width="36" height="36" viewBox="0 0 36 36" fill="none" xmlns="http://www.w3.org/2000/svg">
<path d="M8.05926 3.79259C8.05926 5.88642 6.51852 7.58519 3.95062 7.58519C1.54074 7.58519 0 5.88642 0 3.79259C0 1.65926 1.61975 0 4.06914 0C6.51852 0 8.01975 1.65926 8.05926 3.79259ZM0.197531 35.042V10.5877H7.78272V35.042H0.197531Z" transform="translate(0.0123291 0.0371094)" fill="white"/>
<path d="M0.197531 8.3358C0.197531 5.29383 0.079012 2.72593 -3.01408e-07 0.553086H6.59753L6.95309 3.95062H7.11111C8.09877 2.33086 10.5481 0 14.6568 0C19.6741 0 23.4272 3.35802 23.4272 10.5481V25.0074H15.8025V11.4173C15.8025 8.25679 14.6963 6.12346 11.9704 6.12346C9.87654 6.12346 8.61235 7.58519 8.05926 8.9679C7.86173 9.48148 7.82222 10.1531 7.82222 10.8642V24.9679H0.197531V8.3358Z" transform="translate(12.1803 10.1108)" fill="white"/>
</svg>
