<svg width="18" height="18" viewBox="0 0 18 18" fill="none" xmlns="http://www.w3.org/2000/svg">
<path fill-rule="evenodd" clip-rule="evenodd" d="M5 0H2C0.895508 0 0 0.895508 0 2V6C0 7.10449 0.895508 8 2 8V11H3L6 8H9C10.1045 8 11 7.10449 11 6V4.5459L10.9089 4.45459H7C5.89551 4.45459 5 3.55908 5 2.45459V0Z" transform="translate(0 7)" fill="white"/>
<path fill-rule="evenodd" clip-rule="evenodd" d="M2 0C0.895508 0 0 0.895508 0 2V6C0 7.10449 0.895508 8 2 8V11H3L6 8H9C10.1045 8 11 7.10449 11 6V2C11 0.895508 10.1045 0 9 0H2Z" transform="translate(18 2) scale(-1 1)" fill="white"/>
</svg>
