<svg width="38" height="30" viewBox="0 0 38 30" fill="none" xmlns="http://www.w3.org/2000/svg">
<path d="M36.3852 3.47654C35.042 4.06914 33.6198 4.4642 32.1185 4.66173C33.6593 3.75309 34.8444 2.29136 35.3975 0.553086C33.9753 1.42222 32.3556 2.01482 30.6568 2.37037C29.2741 0.908642 27.3383 0 25.2049 0C21.0963 0 17.7383 3.35803 17.7383 7.46667C17.7383 8.05926 17.8173 8.61235 17.9358 9.16543C11.7333 8.84938 6.24198 5.88642 2.5679 1.38272C1.9358 2.48889 1.54074 3.75309 1.54074 5.1358C1.54074 7.7037 2.84444 9.99506 4.85926 11.3383C3.63457 11.2988 2.48889 10.9827 1.50123 10.3901C1.50123 10.4296 1.50123 10.4691 1.50123 10.4691C1.50123 14.0642 4.06914 17.1062 7.46667 17.7778C6.83457 17.9358 6.20247 18.0543 5.49136 18.0543C5.01728 18.0543 4.54321 18.0148 4.06914 17.9358C5.01728 20.8988 7.78272 23.0716 11.0222 23.1111C8.45432 25.1259 5.25432 26.3111 1.77778 26.3111C1.18519 26.3111 0.592593 26.2716 -5.8869e-10 26.1926C3.31852 28.3259 7.22963 29.5506 11.4173 29.5506C25.1259 29.5506 32.6321 18.1728 32.6321 8.3358C32.6321 8.01975 32.6321 7.7037 32.5926 7.38766C34.1333 6.32099 35.3975 4.97778 36.3852 3.47654Z" transform="translate(0.827148 0.197266)" fill="white"/>
</svg>
