<svg width="38" height="38" viewBox="0 0 38 38" fill="none" xmlns="http://www.w3.org/2000/svg">
<path d="M18.7572 3.38049C23.7652 3.38049 24.3572 3.39694 26.339 3.48742C28.1646 3.56967 29.1596 3.87399 29.8257 4.1372C30.6974 4.47442 31.3223 4.88567 31.9802 5.54368C32.638 6.20168 33.041 6.82678 33.3864 7.69864C33.6413 8.35664 33.9455 9.35187 34.036 11.1861C34.1264 13.1683 34.1429 13.7605 34.1429 18.7695C34.1429 23.7786 34.1264 24.3708 34.036 26.353C33.9538 28.179 33.6495 29.1742 33.3864 29.8405C33.0492 30.7123 32.638 31.3374 31.9802 31.9954C31.3223 32.6534 30.6974 33.0564 29.8257 33.4019C29.1678 33.6569 28.1728 33.9612 26.339 34.0517C24.3572 34.1421 23.7652 34.1586 18.7572 34.1586C13.7493 34.1586 13.1572 34.1421 11.1754 34.0517C9.34982 33.9694 8.35481 33.6651 7.68873 33.4019C6.81707 33.0647 6.1921 32.6534 5.53424 31.9954C4.87638 31.3374 4.47344 30.7123 4.12807 29.8405C3.87315 29.1824 3.56889 28.1872 3.47843 26.353C3.38797 24.3708 3.37153 23.7786 3.37153 18.7695C3.37153 13.7605 3.38797 13.1683 3.47843 11.1861C3.56066 9.3601 3.86492 8.36487 4.12807 7.69864C4.46522 6.82678 4.87638 6.20168 5.53424 5.54368C6.1921 4.88567 6.81707 4.48265 7.68873 4.1372C8.34659 3.88222 9.3416 3.57789 11.1754 3.48742C13.1572 3.39694 13.7493 3.38049 18.7572 3.38049ZM18.7572 0C13.6588 0 13.0256 0.0246751 11.0191 0.115151C9.02089 0.205626 7.65584 0.526403 6.46347 0.987005C5.22998 1.46406 4.18563 2.10561 3.14128 3.15019C2.10515 4.19477 1.46374 5.23935 0.986789 6.47311C0.526287 7.66574 0.205581 9.0311 0.115125 11.0298C0.0246697 13.0285 0 13.67 0 18.7613C0 23.8608 0.0246697 24.4942 0.115125 26.5011C0.205581 28.4998 0.526287 29.8651 0.986789 31.0578C1.46374 32.2915 2.10515 33.3361 3.1495 34.3807C4.19385 35.4253 5.2382 36.0668 6.47169 36.5439C7.66406 37.0045 9.02912 37.3252 11.0274 37.4157C13.0256 37.5062 13.667 37.5309 18.7654 37.5309C23.8638 37.5309 24.497 37.5062 26.5035 37.4157C28.5017 37.3252 29.8668 37.0045 31.0592 36.5439C32.2927 36.0668 33.337 35.4253 34.3814 34.3807C35.4257 33.3361 36.0671 32.2915 36.5441 31.0578C37.0046 29.8651 37.3253 28.4998 37.4157 26.5011C37.5062 24.5024 37.5309 23.8608 37.5309 18.7613C37.5309 13.6618 37.5062 13.0285 37.4157 11.0216C37.3253 9.02287 37.0046 7.65751 36.5441 6.46488C36.0671 5.23113 35.4257 4.18655 34.3814 3.14197C33.337 2.09739 32.2927 1.45583 31.0592 0.97878C29.8668 0.518178 28.5017 0.197401 26.5035 0.106926C24.497 0.0246751 23.8556 0 18.7572 0Z" transform="translate(0.0370483 0.0371094)" fill="white"/>
<path d="M9.62941 0C4.30898 0 0 4.30992 0 9.63153C0 14.9531 4.3172 19.2713 9.63764 19.2713C14.9581 19.2713 19.2753 14.9614 19.2753 9.63153C19.267 4.30992 14.9498 0 9.62941 0ZM9.62941 15.8908C6.17565 15.8908 3.37975 13.0943 3.37975 9.63975C3.37975 6.18523 6.17565 3.38872 9.62941 3.38872C13.0832 3.38872 15.8791 6.18523 15.8791 9.63975C15.8873 13.086 13.0832 15.8908 9.62941 15.8908Z" transform="translate(9.16486 9.16699)" fill="white"/>
<path d="M4.50633 2.25366C4.50633 3.49564 3.49488 4.50732 2.25317 4.50732C1.01146 4.50732 0 3.49564 0 2.25366C0 1.01168 1.01146 0 2.25317 0C3.49488 0 4.50633 1.00346 4.50633 2.25366Z" transform="translate(26.557 6.53467)" fill="white"/>
</svg>
