<svg width="28" height="59" viewBox="0 0 28 59" fill="none" xmlns="http://www.w3.org/2000/svg">
<line y1="-0.5" x2="18" y2="-0.5" transform="translate(14) rotate(90)" stroke="black"/>
<line y1="-0.5" x2="18" y2="-0.5" transform="translate(14 41) rotate(90)" stroke="black"/>
<path d="M12.85 3.716C12.85 4.388 12.734 5.004 12.502 5.564C12.27 6.116 11.946 6.592 11.53 6.992C11.122 7.384 10.634 7.688 10.066 7.904C9.49797 8.12 8.88197 8.228 8.21797 8.228C7.55397 8.228 6.93797 8.12 6.36997 7.904C5.80997 7.688 5.32197 7.384 4.90597 6.992C4.49797 6.592 4.17797 6.116 3.94597 5.564C3.71397 5.004 3.59797 4.388 3.59797 3.716C3.59797 3.036 3.71397 2.424 3.94597 1.88C4.17797 1.328 4.49797 0.86 4.90597 0.476C5.32197 0.092 5.80997 -0.204 6.36997 -0.412C6.93797 -0.62 7.55397 -0.724 8.21797 -0.724C8.88197 -0.724 9.49797 -0.62 10.066 -0.412C10.634 -0.204 11.122 0.092 11.53 0.476C11.946 0.86 12.27 1.328 12.502 1.88C12.734 2.424 12.85 3.036 12.85 3.716ZM10.654 3.716C10.654 3.348 10.594 3.004 10.474 2.684C10.354 2.364 10.186 2.092 9.96997 1.868C9.76197 1.636 9.50597 1.456 9.20197 1.328C8.90597 1.192 8.57797 1.124 8.21797 1.124C7.85797 1.124 7.52997 1.192 7.23397 1.328C6.93797 1.456 6.68197 1.636 6.46597 1.868C6.24997 2.092 6.08197 2.364 5.96197 2.684C5.84997 3.004 5.79397 3.348 5.79397 3.716C5.79397 4.1 5.85397 4.456 5.97397 4.784C6.09397 5.104 6.25797 5.38 6.46597 5.612C6.68197 5.844 6.93797 6.028 7.23397 6.164C7.52997 6.292 7.85797 6.356 8.21797 6.356C8.57797 6.356 8.90597 6.292 9.20197 6.164C9.49797 6.028 9.75397 5.844 9.96997 5.612C10.186 5.38 10.354 5.104 10.474 4.784C10.594 4.456 10.654 4.1 10.654 3.716ZM20.549 8L18.713 4.628H18.017V8H16.001V-0.496H19.241C19.649 -0.496 20.045 -0.452 20.429 -0.364C20.821 -0.284 21.169 -0.144 21.473 0.056C21.785 0.256 22.033 0.52 22.217 0.848C22.401 1.176 22.493 1.584 22.493 2.072C22.493 2.648 22.337 3.132 22.025 3.524C21.713 3.916 21.281 4.196 20.729 4.364L22.949 8H20.549ZM20.465 2.108C20.465 1.908 20.421 1.748 20.333 1.628C20.253 1.5 20.145 1.404 20.009 1.34C19.881 1.268 19.733 1.22 19.565 1.196C19.405 1.172 19.249 1.16 19.097 1.16H18.005V3.14H18.977C19.145 3.14 19.317 3.128 19.493 3.104C19.669 3.072 19.829 3.02 19.973 2.948C20.117 2.876 20.233 2.772 20.321 2.636C20.417 2.5 20.465 2.324 20.465 2.108Z" transform="translate(0 27)" fill="black"/>
</svg>
