<svg width="351" height="88" viewBox="0 0 351 88" fill="none" xmlns="http://www.w3.org/2000/svg">
<path d="M0 0V38.5244H29.3259V29.1438H10.6557V0H0Z" transform="translate(0 48.9993)" fill="#00B3E6"/>
<path d="M0 0V38.5244H31.1474V29.417H10.4735V23.315H28.9616V14.9362H10.4735V9.10742H30.8742V0H0Z" transform="translate(34.335 48.9993)" fill="#00B3E6"/>
<path d="M21.4024 12.6593L25.6829 23.5882H17.0309L21.4024 12.6593ZM16.3934 0L0 38.7976H11.2021L13.9344 31.967H28.7794L31.6027 38.7976H43.0781L26.6847 0.0910728H16.3934V0Z" transform="translate(68.3057 48.726)" fill="#00B3E6"/>
<path d="M15.7558 19.1256C19.581 19.1256 21.8578 17.122 21.8578 14.1165V14.0254C21.8578 10.7468 19.581 8.92527 15.6648 8.92527H10.6557V19.1256H15.7558ZM0 0H16.4844C26.2294 0 32.5135 5.00908 32.5135 13.479V13.5701C32.5135 22.6775 25.5008 27.4133 15.938 27.4133H10.6557V38.4333H0V0Z" transform="translate(115.482 48.9993)" fill="#00B3E6"/>
<path d="M0 0H3.46082V22.3132H0V0Z" transform="translate(153.733 65.1194)" fill="#B7B7B7"/>
<path d="M0 0.455371H3.46082V3.5519C4.91801 1.91256 7.65024 0 10.5646 0C14.1165 0 16.0291 2.18578 16.0291 6.19305V22.7686H12.6593V6.92164C12.6593 4.28049 11.7486 3.00545 9.47173 3.00545C7.28595 3.00545 5.00908 4.64479 3.46082 6.19305V22.7686H0V0.455371Z" transform="translate(163.661 64.664)" fill="#B7B7B7"/>
<path d="M0 0.455371H3.46082V3.5519C4.91801 1.91256 7.65024 0 10.5646 0C14.1165 0 16.0291 2.18578 16.0291 6.19305V22.7686H12.6593V6.92164C12.6593 4.28049 11.7486 3.00545 9.47173 3.00545C7.28595 3.00545 5.00908 4.64479 3.46082 6.19305V22.7686H0V0.455371Z" transform="translate(185.7 64.664)" fill="#B7B7B7"/>
<path d="M0 11.6575C0 3.91619 3.82511 0 8.8342 0C13.7522 0 17.6684 3.91619 17.6684 11.6575C17.6684 19.3077 13.8433 23.315 8.8342 23.315C3.91619 23.315 0 19.3077 0 11.6575ZM14.2076 11.6575C14.2076 6.83057 12.5682 3.00545 8.8342 3.00545C5.2823 3.00545 3.46082 6.46627 3.46082 11.6575C3.46082 16.4844 5.00908 20.4006 8.8342 20.4006C12.3861 20.4006 14.2076 16.9398 14.2076 11.6575Z" transform="translate(206.739 64.664)" fill="#B7B7B7"/>
<path d="M0 0H3.46082L7.10378 12.6593C7.65022 14.5719 8.01454 16.1201 8.74313 18.6702H8.83421C9.38066 16.2112 9.83601 14.663 10.3825 12.6593L13.9343 0H17.1219L10.3825 22.4043H6.83057L0 0Z" transform="translate(226.775 65.1194)" fill="#B7B7B7"/>
<path d="M0 17.5773C0 13.1147 3.73405 9.83602 12.4772 8.10561V6.73949C12.4772 4.18942 11.3843 3.00545 9.10742 3.00545C6.3752 3.00545 4.18943 4.37156 2.55009 6.0109L0.637531 3.91619C3.00546 1.54826 5.91982 0 9.47171 0C13.8433 0 15.8469 2.36793 15.8469 6.73949V17.3952C15.8469 20.1274 15.938 21.7667 16.3934 22.8596H12.9325C12.6593 21.9489 12.4772 21.2203 12.4772 19.9453C10.6557 21.9489 8.19667 23.1329 5.37337 23.1329C2.00363 23.2239 0 21.1292 0 17.5773ZM12.4772 17.4862V10.6557C5.55554 12.1129 3.36976 14.4808 3.36976 17.213C3.36976 19.4899 4.55372 20.4917 6.46627 20.4917C8.8342 20.4006 10.9289 19.2167 12.4772 17.4862Z" transform="translate(246.265 64.5729)" fill="#B7B7B7"/>
<path d="M3.27868 25.2276V10.7468H0V7.92346H3.27868V0H6.64843V7.92346H11.5664V10.7468H6.64843V24.4079C6.64843 26.6847 7.19487 27.6866 9.65387 27.6866C10.2914 27.6866 11.1111 27.5955 11.5664 27.4133V30.1456C11.02 30.3277 9.83603 30.4188 8.92529 30.4188C4.73588 30.5099 3.27868 29.0527 3.27868 25.2276Z" transform="translate(266.301 57.1959)" fill="#B7B7B7"/>
<path d="M0 0H3.46081V22.3132H0V0Z" transform="translate(282.968 65.1194)" fill="#B7B7B7"/>
<path d="M0 11.6575C0 3.91619 3.82513 0 8.83421 0C13.7522 0 17.6684 3.91619 17.6684 11.6575C17.6684 19.3077 13.8433 23.315 8.83421 23.315C3.9162 23.315 0 19.3077 0 11.6575ZM14.2076 11.6575C14.2076 6.83057 12.5683 3.00545 8.83421 3.00545C5.28232 3.00545 3.46081 6.46627 3.46081 11.6575C3.46081 16.4844 5.00909 20.4006 8.83421 20.4006C12.3861 20.4006 14.2076 16.9398 14.2076 11.6575Z" transform="translate(291.893 64.664)" fill="#B7B7B7"/>
<path d="M0 0.455371H3.46081V3.5519C4.918 1.91256 7.55917 0 10.5646 0C14.1165 0 16.0291 2.18578 16.0291 6.19305V22.7686H12.6593V6.92164C12.6593 4.28049 11.7486 3.00545 9.47171 3.00545C7.28593 3.00545 5.00907 4.64479 3.46081 6.19305V22.7686H0V0.455371Z" transform="translate(314.753 64.664)" fill="#B7B7B7"/>
<path d="M0 18.7613L2.36791 17.0309C3.82509 19.3077 6.01088 20.4917 8.37881 20.4917C11.2021 20.4917 12.8414 19.3077 12.8414 17.213C12.8414 11.7486 1.18395 13.9344 1.18395 6.0109C1.18395 2.459 4.09832 0 8.28773 0C11.5664 0 14.0254 1.54826 15.6647 4.00727L13.3879 5.82875C12.2039 4.09834 10.5646 2.8233 8.28773 2.8233C5.73765 2.8233 4.55371 4.09834 4.55371 5.82875C4.55371 11.3843 16.1201 8.8342 16.1201 17.0309C16.1201 20.9471 12.6593 23.315 8.46989 23.315C4.46263 23.4061 1.73041 21.5846 0 18.7613Z" transform="translate(334.88 64.5729)" fill="#B7B7B7"/>
<path d="M122.17 13.0236L124.173 13.7522V12.6593C118.982 6.92164 109.328 0 92.9348 0C70.5306 0 58.8731 15.3915 55.2301 21.4024C51.5871 17.9416 42.7529 11.2021 28.8186 11.2021C10.6037 11.2021 0.767727 24.59 0.312355 25.1365C-0.23409 25.9562 -0.0519414 27.1401 0.767727 27.6866C1.13202 27.9598 1.49632 28.0509 1.86061 28.0509C2.40706 28.0509 2.95351 27.7776 3.31781 27.3223C3.40888 27.2312 12.4252 14.9362 28.8186 14.9362C45.2119 14.9362 54.1372 25.5919 54.2283 25.6829C54.5926 26.1383 55.2301 26.4115 55.8676 26.3204C56.5051 26.2294 57.0516 25.8651 57.3248 25.3186C57.7802 24.4079 67.7073 3.82512 93.0259 3.82512C106.505 3.82512 114.975 8.8342 119.893 13.5701C120.53 12.9325 121.35 12.7504 122.17 13.0236Z" transform="translate(154.332 28.5076)" fill="#B7B7B7"/>
<path d="M21.6757 10.145L16.8487 8.68778L19.9452 4.77159C20.0363 4.58944 20.1274 4.31622 19.9452 4.13407C19.8542 3.95192 19.581 3.86085 19.3988 3.95192L14.663 5.59126L14.8451 0.582176C14.8451 0.400028 14.6629 0.126803 14.4808 0.0357287C14.2986 -0.0553455 14.0254 0.0357294 13.9344 0.217878L11.1111 4.31622L8.28776 0.217878C8.19668 0.0357294 7.92346 -0.0553455 7.74131 0.0357287C7.55916 0.126803 7.37702 0.308951 7.37702 0.4911L7.4681 5.50018L2.73223 3.76977C2.55008 3.6787 2.27685 3.76977 2.18578 3.95192C2.0947 4.13407 2.0947 4.40729 2.18578 4.58944L5.19124 8.50563L0.364291 9.87174C0.182143 9.96282 0 10.145 0 10.3271C0 10.5093 0.182143 10.7825 0.364291 10.7825L5.19124 12.2397L2.09472 16.1559C1.91258 16.338 1.91258 16.6112 2.09472 16.7934C2.27687 16.9755 2.459 17.0666 2.64115 16.9755L7.37702 15.3362L7.19486 20.3453C7.19486 20.5274 7.37703 20.8006 7.55918 20.8917C7.74133 20.9828 8.01453 20.8917 8.1056 20.7096L10.9289 16.6112L13.7522 20.7096C13.8433 20.8917 14.0254 20.8917 14.2076 20.8917L14.4808 20.8006C14.6629 20.7096 14.754 20.5274 14.754 20.3453L14.663 15.3362L19.3988 16.9755C19.581 17.0666 19.8542 16.9755 19.9452 16.7934C20.0363 16.6112 20.0363 16.338 19.9452 16.1559L16.9398 12.1486L21.7667 10.7825C21.9489 10.6914 22.1311 10.5093 22.1311 10.3271C22.04 10.4182 21.9489 10.145 21.6757 10.145Z" transform="translate(273.132 39.4007)" fill="#F5C400"/>
<path d="M58.4697 1.26205C58.1964 0.260237 57.1035 -0.195134 56.1928 0.0780889C55.3731 0.351312 36.6118 6.36221 19.4899 19.2037C10.8378 25.761 4.28049 33.138 0 38.9668C0.182148 39.3311 0.273212 39.6954 0.273212 40.1507L0.18216 42.3365L2.18578 41.6079C2.36792 41.5169 2.55007 41.5169 2.64115 41.5169C6.83056 35.8703 13.2058 28.5843 21.6757 22.2091C38.2512 9.64088 57.1035 3.62998 57.2857 3.53891C58.2875 3.26569 58.834 2.26387 58.4697 1.26205Z" transform="translate(289.616 0.0142822)" fill="#B7B7B7"/>
</svg>
