<svg width="438" height="110" viewBox="0 0 438 110" fill="none" xmlns="http://www.w3.org/2000/svg">
<path d="M0 0V48.0732H36.5947V36.3674H13.2968V0H0Z" transform="translate(0 61.1426)" fill="white"/>
<path d="M0 0V48.0732H38.8677V36.7084H13.0695V29.0939H36.1401V18.6383H13.0695V11.3648H38.5267V0H0Z" transform="translate(42.8452 61.1426)" fill="white"/>
<path d="M26.7073 15.7971L32.0488 29.4349H21.2522L26.7073 15.7971ZM20.4567 0L0 48.4141H13.9787L17.3882 39.8905H35.9128L39.4359 48.4141H53.7556L33.2989 0.113646H20.4567V0Z" transform="translate(85.2361 60.8018)" fill="white"/>
<path d="M19.6611 23.8661C24.4344 23.8661 27.2756 21.3659 27.2756 17.6155V17.5018C27.2756 13.4105 24.4344 11.1375 19.5475 11.1375H13.2968V23.8661H19.6611ZM0 0H20.5703C32.7307 0 40.5724 6.25065 40.5724 16.8199V16.9336C40.5724 28.2984 31.8215 34.2081 19.8884 34.2081H13.2968V47.9595H0V0Z" transform="translate(144.106 61.1426)" fill="white"/>
<path d="M0 0H4.31863V27.8438H0V0Z" transform="translate(191.838 81.2588)" fill="white"/>
<path d="M0 0.568241H4.31863V4.43228C6.137 2.38661 9.54645 0 13.1832 0C17.6155 0 20.0021 2.72756 20.0021 7.72808V28.412H15.7971V8.63726C15.7971 5.34146 14.6606 3.75039 11.8194 3.75039C9.09186 3.75039 6.25065 5.79606 4.31863 7.72808V28.412H0V0.568241Z" transform="translate(204.226 80.6904)" fill="white"/>
<path d="M0 0.568241H4.31863V4.43228C6.137 2.38661 9.54645 0 13.1832 0C17.6155 0 20.0021 2.72756 20.0021 7.72808V28.412H15.7971V8.63726C15.7971 5.34146 14.6606 3.75039 11.8194 3.75039C9.09186 3.75039 6.25065 5.79606 4.31863 7.72808V28.412H0V0.568241Z" transform="translate(231.729 80.6904)" fill="white"/>
<path d="M0 14.547C0 4.88687 4.77322 0 11.0239 0C17.1609 0 22.0477 4.88687 22.0477 14.547C22.0477 24.0934 17.2745 29.0939 11.0239 29.0939C4.88687 29.0939 0 24.0934 0 14.547ZM17.7291 14.547C17.7291 8.52362 15.6834 3.75039 11.0239 3.75039C6.59159 3.75039 4.31863 8.06902 4.31863 14.547C4.31863 20.5703 6.25065 25.4572 11.0239 25.4572C15.4561 25.4572 17.7291 21.1386 17.7291 14.547Z" transform="translate(257.981 80.6904)" fill="white"/>
<path d="M0 0H4.31863L8.86454 15.7971C9.54643 18.1837 10.001 20.1157 10.9102 23.2979H11.0239C11.7058 20.2294 12.274 18.2974 12.9559 15.7971L17.3882 0H21.3658L12.9559 27.9574H8.52361L0 0Z" transform="translate(282.984 81.2588)" fill="white"/>
<path d="M0 21.9341C0 16.3653 4.65959 12.274 15.5698 10.1147V8.40997C15.5698 5.22782 14.206 3.75038 11.3648 3.75038C7.95537 3.75038 5.22784 5.45511 3.18217 7.50078L0.795551 4.88687C3.7504 1.93201 7.38712 0 11.8194 0C17.2745 0 19.7748 2.95485 19.7748 8.40997V21.7068C19.7748 25.1162 19.8884 27.1619 20.4567 28.5257H16.1381C15.7971 27.3892 15.5698 26.48 15.5698 24.889C13.2969 27.3892 10.2283 28.8666 6.70524 28.8666C2.50025 28.9803 0 26.3664 0 21.9341ZM15.5698 21.8204V13.2968C6.93255 15.1152 4.205 18.0701 4.205 21.4795C4.205 24.3207 5.68242 25.5708 8.06903 25.5708C11.0239 25.4572 13.6378 23.9798 15.5698 21.8204Z" transform="translate(307.305 80.5762)" fill="white"/>
<path d="M4.09134 31.4805V13.4105H0V9.88739H4.09134V0H8.29634V9.88739H14.4333V13.4105H8.29634V30.4577C8.29634 33.2989 8.97821 34.549 12.0467 34.549C12.8422 34.549 13.8651 34.4354 14.4333 34.2081V37.6175C13.7514 37.8448 12.274 37.9585 11.1375 37.9585C5.90973 38.0721 4.09134 36.2538 4.09134 31.4805Z" transform="translate(332.307 71.3711)" fill="white"/>
<path d="M0 0H4.31862V27.8438H0V0Z" transform="translate(353.105 81.2588)" fill="white"/>
<path d="M0 14.547C0 4.88687 4.77324 0 11.0239 0C17.1609 0 22.0477 4.88687 22.0477 14.547C22.0477 24.0934 17.2745 29.0939 11.0239 29.0939C4.88688 29.0939 0 24.0934 0 14.547ZM17.7291 14.547C17.7291 8.52362 15.6835 3.75039 11.0239 3.75039C6.59161 3.75039 4.31862 8.06902 4.31862 14.547C4.31862 20.5703 6.25066 25.4572 11.0239 25.4572C15.4562 25.4572 17.7291 21.1386 17.7291 14.547Z" transform="translate(364.242 80.6904)" fill="white"/>
<path d="M0 0.568241H4.31862V4.43228C6.13699 2.38661 9.43281 0 13.1832 0C17.6155 0 20.0021 2.72756 20.0021 7.72808V28.412H15.7971V8.63726C15.7971 5.34146 14.6606 3.75039 11.8194 3.75039C9.09185 3.75039 6.25064 5.79606 4.31862 7.72808V28.412H0V0.568241Z" transform="translate(392.768 80.6904)" fill="white"/>
<path d="M0 23.4115L2.95482 21.2522C4.7732 24.0934 7.50076 25.5708 10.4556 25.5708C13.9787 25.5708 16.0244 24.0934 16.0244 21.4795C16.0244 14.6606 1.47741 17.3882 1.47741 7.50078C1.47741 3.0685 5.11414 0 10.342 0C14.4333 0 17.5018 1.93202 19.5475 5.00052L16.7063 7.27348C15.2288 5.11417 13.1832 3.52309 10.342 3.52309C7.15981 3.52309 5.68241 5.11417 5.68241 7.27348C5.68241 14.206 20.1157 11.0239 20.1157 21.2522C20.1157 26.1391 15.7971 29.0939 10.5693 29.0939C5.56875 29.2076 2.15932 26.9346 0 23.4115Z" transform="translate(417.884 80.5762)" fill="white"/>
<path d="M152.451 16.2517L154.951 17.1609V15.7971C148.473 8.63726 136.427 0 115.97 0C88.0125 0 73.4656 19.2065 68.9196 26.7073C64.3737 22.3887 53.3498 13.9787 35.9617 13.9787C13.232 13.9787 0.958018 30.685 0.389777 31.3669C-0.292112 32.3897 -0.0648157 33.8672 0.958018 34.549C1.41261 34.89 1.8672 35.0036 2.32179 35.0036C3.00368 35.0036 3.68558 34.6627 4.14017 34.0945C4.25382 33.9808 15.505 18.6383 35.9617 18.6383C56.4183 18.6383 67.5558 31.9351 67.6695 32.0488C68.1241 32.617 68.9196 32.958 69.7152 32.8443C70.5107 32.7307 71.1926 32.2761 71.5335 31.5942C72.1018 30.4577 84.4894 4.77322 116.084 4.77322C132.904 4.77322 143.473 11.0239 149.61 16.9336C150.405 16.138 151.428 15.9107 152.451 16.2517Z" transform="translate(192.585 35.5713)" fill="white"/>
<path d="M27.0483 12.6595L21.0249 10.8412L24.8889 5.95429C25.0026 5.72699 25.1162 5.38605 24.8889 5.15875C24.7753 4.93146 24.4344 4.81781 24.2071 4.93146L18.2974 6.97713L18.5247 0.726476C18.5247 0.49918 18.2973 0.158233 18.0701 0.0445846C17.8428 -0.0690636 17.5018 0.0445854 17.3882 0.271882L13.8651 5.38605L10.342 0.271882C10.2283 0.0445854 9.88739 -0.0690636 9.66009 0.0445846C9.4328 0.158233 9.20551 0.385529 9.20551 0.612825L9.31916 6.86347L3.40945 4.70416C3.18215 4.59051 2.8412 4.70416 2.72755 4.93146C2.6139 5.15875 2.6139 5.4997 2.72755 5.72699L6.47796 10.6139L0.454586 12.3186C0.227289 12.4322 0 12.6595 0 12.8868C0 13.1141 0.227289 13.4551 0.454586 13.4551L6.47796 15.2734L2.61393 20.1603C2.38663 20.3876 2.38663 20.7286 2.61393 20.9558C2.84122 21.1831 3.06849 21.2968 3.29579 21.1831L9.20551 19.1375L8.9782 25.3881C8.9782 25.6154 9.20552 25.9564 9.43282 26.07C9.66012 26.1837 10.001 26.07 10.1147 25.8427L13.6378 20.7286L17.1609 25.8427C17.2745 26.07 17.5018 26.07 17.7291 26.07L18.0701 25.9564C18.2973 25.8427 18.411 25.6154 18.411 25.3881L18.2974 19.1375L24.2071 21.1831C24.4344 21.2968 24.7753 21.1831 24.8889 20.9558C25.0026 20.7286 25.0026 20.3876 24.8889 20.1603L21.1386 15.1598L27.1619 13.4551C27.3892 13.3414 27.6165 13.1141 27.6165 12.8868C27.5029 13.0005 27.3892 12.6595 27.0483 12.6595Z" transform="translate(340.831 49.165)" fill="#F5C400"/>
<path d="M72.9621 1.57487C72.6212 0.32474 71.2574 -0.2435 70.1209 0.0974442C69.0981 0.438389 45.6866 7.93917 24.3207 23.9636C13.5241 32.1462 5.34146 41.3517 0 48.6252C0.227296 49.0798 0.340931 49.5344 0.340931 50.1026L0.22731 52.8302L2.72755 51.921C2.95485 51.8074 3.18214 51.8074 3.29579 51.8074C8.52361 44.7612 16.479 35.6693 27.0482 27.7139C47.7322 12.0305 71.2574 4.52972 71.4847 4.41607C72.7348 4.07513 73.4167 2.825 72.9621 1.57487Z" transform="translate(361.401 0.0146484)" fill="white"/>
</svg>
