<svg width="47" height="43" viewBox="0 0 47 43" fill="none" xmlns="http://www.w3.org/2000/svg">
<path d="M46.0329 20.845L35.7819 17.8509L42.358 9.80427C42.5514 9.43 42.7448 8.8686 42.358 8.49434C42.1646 8.12008 41.5844 7.93294 41.1975 8.12008L31.1399 11.4885L31.5268 1.19621C31.5268 0.821944 31.1399 0.260544 30.7531 0.0734124C30.3662 -0.113719 29.786 0.0734139 29.5926 0.447677L23.5967 8.86861L17.6008 0.447677C17.4074 0.0734139 16.8271 -0.113719 16.4403 0.0734124C16.0535 0.260544 15.6667 0.634808 15.6667 1.00907L15.8601 11.3013L5.80246 7.74582C5.41563 7.55869 4.83538 7.74581 4.64196 8.12008C4.44854 8.49434 4.44854 9.05574 4.64196 9.43L11.0247 17.4767L0.77365 20.2836C0.386819 20.4708 0 20.845 0 21.2193C0 21.5936 0.386819 22.155 0.77365 22.155L11.0247 25.1491L4.44859 33.1957C4.06176 33.57 4.06176 34.1314 4.44859 34.5057C4.83542 34.8799 5.22221 35.0671 5.60904 34.8799L15.6667 31.5115L15.2798 41.8038C15.2798 42.1781 15.6667 42.7395 16.0535 42.9266C16.4404 43.1137 17.0206 42.9266 17.214 42.5523L23.2099 34.1314L29.2058 42.5523C29.3992 42.9266 29.786 42.9266 30.1728 42.9266L30.7531 42.7395C31.1399 42.5523 31.3333 42.1781 31.3333 41.8038L31.1399 31.5115L41.1975 34.8799C41.5844 35.0671 42.1646 34.8799 42.358 34.5057C42.5514 34.1314 42.5514 33.57 42.358 33.1957L35.9753 24.9619L46.2263 22.155C46.6131 21.9678 47 21.5936 47 21.2193C46.8066 21.2193 46.6132 20.845 46.0329 20.845Z" fill="#F5C400"/>
</svg>
