<svg width="228" height="96" viewBox="0 0 228 96" fill="none" xmlns="http://www.w3.org/2000/svg">
<path d="M0 1.83641V1.45647C0 0.633247 0.510902 0 1.59657 0C2.68224 0 3.19314 0.569923 3.19314 1.45647V1.83641C3.19314 2.65963 2.68224 3.29287 1.59657 3.29287C0.510902 3.29287 0 2.65963 0 1.83641ZM0.255451 6.26913H2.87383V20.8338H0.255451V6.26913Z" transform="translate(0 74.7863)" fill="#00B3E6"/>
<path d="M0 14.8813V0.316623H2.61837V2.72295H2.7461C3.44859 1.13984 4.66198 0 6.89718 0C9.89873 0 11.7508 2.02638 11.7508 5.57255V14.8813H9.13238V5.95251C9.13238 3.48285 8.11057 2.21635 6.06697 2.21635C4.34267 2.21635 2.68224 3.1029 2.68224 4.87599V14.8813H0Z" transform="translate(8.10938 80.7388)" fill="#00B3E6"/>
<path d="M0 14.8813V0.316623H2.61837V2.72295H2.7461C3.44859 1.13984 4.66198 0 6.89718 0C9.89873 0 11.7508 2.02638 11.7508 5.57255V14.8813H9.13238V5.95251C9.13238 3.48285 8.11057 2.21635 6.06696 2.21635C4.34267 2.21635 2.68224 3.1029 2.68224 4.87599V14.8813H0Z" transform="translate(24.9062 80.7388)" fill="#00B3E6"/>
<path d="M0 7.59894C0 2.97625 2.68223 0 6.70559 0C10.7289 0 13.4112 2.97625 13.4112 7.59894C13.4112 12.2216 10.7289 15.1979 6.70559 15.1979C2.68223 15.1979 0 12.285 0 7.59894ZM10.5374 8.73878V6.52242C10.5374 3.67282 8.94079 2.27968 6.64173 2.27968C4.34267 2.27968 2.7461 3.73614 2.7461 6.52242V8.73878C2.7461 11.5884 4.34267 12.9815 6.64173 12.9815C9.00465 12.9815 10.5374 11.5884 10.5374 8.73878Z" transform="translate(40.6797 80.7388)" fill="#00B3E6"/>
<path d="M5.04516 14.5646L0 0H2.61837L5.04516 6.96569L6.57787 11.9683H6.76946L8.30216 6.96569L10.7289 0H13.2835L8.17444 14.5646H5.04516Z" transform="translate(56.1328 81.0554)" fill="#00B3E6"/>
<path d="M11.8146 14.8813C10.218 14.8813 9.45169 13.8681 9.26011 12.4749H9.13238C8.55762 14.248 6.96105 15.2612 4.85358 15.2612C1.78816 15.2612 0 13.5514 0 10.8918C0 8.10554 2.04361 6.58575 6.25856 6.58575H9.06852V5.25593C9.06852 3.29287 8.04672 2.21635 5.81152 2.21635C4.08722 2.21635 3.00155 3.03957 2.2352 4.30606L0.638628 2.8496C1.53271 1.26649 3.257 0 5.93924 0C9.57942 0 11.6869 1.83641 11.6869 5.00264V12.6649H13.3473V14.8813H11.8146ZM9.06852 10.6385V8.35884H6.25856C3.83177 8.35884 2.7461 9.11873 2.7461 10.4485V11.0185C2.7461 12.3483 3.7679 13.1082 5.42834 13.1082C7.53581 13.1082 9.06852 12.095 9.06852 10.6385Z" transform="translate(71.3359 80.7388)" fill="#00B3E6"/>
<path d="M5.10902 18.4908C3.32087 18.4908 2.29906 17.4142 2.29906 15.7678V6.2058H0V3.98945H1.27726C2.29906 3.98945 2.55451 3.6095 2.55451 2.65963V0H4.91743V3.98945H8.04672V6.2058H4.91743V16.3377H7.85513V18.5541H5.10902V18.4908Z" transform="translate(86.8516 77.1293)" fill="#00B3E6"/>
<path d="M0 1.83641V1.45647C0 0.633247 0.510902 0 1.59657 0C2.68224 0 3.19314 0.569923 3.19314 1.45647V1.83641C3.19314 2.65963 2.68224 3.29287 1.59657 3.29287C0.44704 3.29287 0 2.65963 0 1.83641ZM0.255457 6.26913H2.87383V20.8338H0.255457V6.26913Z" transform="translate(98.7969 74.7863)" fill="#00B3E6"/>
<path d="M0 7.59894C0 2.97625 2.68224 0 6.70559 0C10.7289 0 13.4112 2.97625 13.4112 7.59894C13.4112 12.2216 10.7289 15.1979 6.70559 15.1979C2.68224 15.1979 0 12.285 0 7.59894ZM10.6012 8.73878V6.52242C10.6012 3.67282 9.00465 2.27968 6.70559 2.27968C4.40653 2.27968 2.80997 3.73614 2.80997 6.52242V8.73878C2.80997 11.5884 4.40653 12.9815 6.70559 12.9815C9.00465 12.9815 10.6012 11.5884 10.6012 8.73878Z" transform="translate(105.82 80.7388)" fill="#00B3E6"/>
<path d="M0 14.8813V0.316623H2.61838V2.72295H2.7461C3.44859 1.13984 4.66199 0 6.89718 0C9.89873 0 11.7508 2.02638 11.7508 5.57255V14.8813H9.13238V5.95251C9.13238 3.48285 8.11057 2.21635 6.06696 2.21635C4.34267 2.21635 2.68224 3.1029 2.68224 4.87599V14.8813H0Z" transform="translate(123.383 80.7388)" fill="#00B3E6"/>
<path d="M0 12.4116L1.78816 10.8918C2.87383 12.285 4.27881 13.0449 6.06697 13.0449C7.91899 13.0449 8.94079 12.2216 8.94079 10.8918C8.94079 9.8153 8.36603 9.05541 6.57787 8.80211L5.30061 8.61213C2.49065 8.23219 0.510904 7.09235 0.510904 4.36939C0.510904 1.51979 2.7461 0 5.81152 0C8.30217 0 9.83488 0.886546 11.1121 2.34301L9.4517 3.92612C8.74921 2.97626 7.47195 2.15303 5.74765 2.15303C3.95949 2.15303 3.06542 2.97625 3.06542 4.17942C3.06542 5.44591 3.89563 6.01583 5.61993 6.26913L6.89718 6.4591C10.1542 6.9657 11.4314 8.35884 11.4314 10.5752C11.4314 13.4248 9.26011 15.1979 5.81152 15.1979C3.12928 15.2612 1.34112 14.1214 0 12.4116Z" transform="translate(138.836 80.7388)" fill="#00B3E6"/>
<path d="M1.40498 0C0.638628 0 0 0.633245 0 1.39314V49.0132C0 49.7731 0.638628 50.4063 1.40498 50.4063H37.232C37.9984 50.4063 38.637 49.7731 38.637 49.0132V39.5778C38.637 38.8179 37.9984 38.1847 37.232 38.1847H15.4548C14.6884 38.1847 14.0498 37.5514 14.0498 36.7916V1.45646C14.0498 0.696569 13.4112 0.0633248 12.6448 0.0633248H1.40498V0Z" transform="translate(0.640625 17.5409)" fill="url(#paint0_linear)"/>
<path d="M1.40498 0C0.638628 0 0 0.633245 0 1.39314V49.0132C0 49.7731 0.638628 50.4063 1.40498 50.4063H37.232C37.9984 50.4063 38.637 49.7731 38.637 49.0132V39.5778C38.637 38.8179 37.9984 38.1847 37.232 38.1847H15.4548C14.6884 38.1847 14.0498 37.5514 14.0498 36.7916V1.45646C14.0498 0.696569 13.4112 0.0633248 12.6448 0.0633248H1.40498V0Z" transform="translate(0.640625 17.5409)" fill="#01AEE3"/>
<path d="M1.46885 0C0.63863 0 0 0.633245 0 1.45646V49.0132C0 49.8364 0.63863 50.4697 1.46885 50.4697H39.8504C40.6806 50.4697 41.3192 49.8364 41.3192 49.0132V39.9578C41.3192 39.1346 40.6806 38.5013 39.8504 38.5013H15.3909C14.5607 38.5013 13.9221 37.8681 13.9221 37.0448V31.9156C13.9221 31.0923 14.5607 30.4591 15.3909 30.4591H36.9127C37.7429 30.4591 38.3815 29.8259 38.3815 29.0026V20.9604C38.3815 20.1372 37.7429 19.504 36.9127 19.504H15.3909C14.5607 19.504 13.9221 18.8707 13.9221 18.0475V13.2982C13.9221 12.4749 14.5607 11.8417 15.3909 11.8417H39.4672C40.2974 11.8417 40.9361 11.2084 40.9361 10.3852V1.45646C40.9361 0.633245 40.2974 0 39.4672 0H1.46885Z" transform="translate(47.2578 17.5409)" fill="url(#paint1_linear)"/>
<path d="M1.46885 0C0.63863 0 0 0.633245 0 1.45646V49.0132C0 49.8364 0.63863 50.4697 1.46885 50.4697H39.8504C40.6806 50.4697 41.3192 49.8364 41.3192 49.0132V39.9578C41.3192 39.1346 40.6806 38.5013 39.8504 38.5013H15.3909C14.5607 38.5013 13.9221 37.8681 13.9221 37.0448V31.9156C13.9221 31.0923 14.5607 30.4591 15.3909 30.4591H36.9127C37.7429 30.4591 38.3815 29.8259 38.3815 29.0026V20.9604C38.3815 20.1372 37.7429 19.504 36.9127 19.504H15.3909C14.5607 19.504 13.9221 18.8707 13.9221 18.0475V13.2982C13.9221 12.4749 14.5607 11.8417 15.3909 11.8417H39.4672C40.2974 11.8417 40.9361 11.2084 40.9361 10.3852V1.45646C40.9361 0.633245 40.2974 0 39.4672 0H1.46885Z" transform="translate(47.2578 17.5409)" fill="url(#paint2_linear)"/>
<path d="M22.6336 29.3826L26.6569 19.2507C27.0401 18.3008 28.3812 18.3008 28.7644 19.2507L32.7878 29.3826C33.1071 30.1425 32.5323 30.9024 31.7021 30.9024H23.6554C22.889 30.9024 22.3143 30.1425 22.6336 29.3826ZM21.8034 0C21.3563 0 20.9093 0.253298 20.7816 0.69657L0.0900231 49.2032C-0.229291 49.9631 0.345468 50.7863 1.11182 50.7863H13.4373C13.8844 50.7863 14.3314 50.533 14.523 50.0897L17.5884 42.4908C17.78 42.0475 18.1632 41.7942 18.6741 41.7942H36.7473C37.1943 41.7942 37.6413 42.0475 37.8329 42.4908L40.9622 50.0897C41.1538 50.533 41.537 50.7863 42.0479 50.7863H54.6927C55.5229 50.7863 56.0338 49.9631 55.7145 49.2032L35.023 0.69657C34.8314 0.253298 34.4482 0 34.0012 0H21.8034Z" transform="translate(94.9375 17.1609)" fill="url(#paint3_linear)"/>
<path d="M22.6336 29.3826L26.6569 19.2507C27.0401 18.3008 28.3812 18.3008 28.7644 19.2507L32.7878 29.3826C33.1071 30.1425 32.5323 30.9024 31.7021 30.9024H23.6554C22.889 30.9024 22.3143 30.1425 22.6336 29.3826ZM21.8034 0C21.3563 0 20.9093 0.253298 20.7816 0.69657L0.0900231 49.2032C-0.229291 49.9631 0.345468 50.7863 1.11182 50.7863H13.4373C13.8844 50.7863 14.3314 50.533 14.523 50.0897L17.5884 42.4908C17.78 42.0475 18.1632 41.7942 18.6741 41.7942H36.7473C37.1943 41.7942 37.6413 42.0475 37.8329 42.4908L40.9622 50.0897C41.1538 50.533 41.537 50.7863 42.0479 50.7863H54.6927C55.5229 50.7863 56.0338 49.9631 55.7145 49.2032L35.023 0.69657C34.8314 0.253298 34.4482 0 34.0012 0H21.8034Z" transform="translate(94.9375 17.1609)" fill="url(#paint4_linear)"/>
<path d="M28.5968 10.1952L21.6357 10.3219L24.0625 3.8628C24.1902 3.54617 24.0625 3.22955 23.8071 3.03958C23.5516 2.8496 23.2323 2.8496 22.9768 3.03958L17.4208 7.15567L15.5049 0.506596C15.441 0.189974 15.1217 0 14.8024 0C14.4831 0 14.2276 0.189974 14.0999 0.506596L12.0563 7.09235L6.5641 2.8496C6.30865 2.65963 5.98934 2.65963 5.73389 2.8496C5.47844 3.03958 5.35072 3.3562 5.47845 3.67282L7.77751 10.1952L0.81645 9.94195C0.497136 9.94195 0.2417 10.1319 0.113975 10.4485C-0.0137508 10.7652 0.113971 11.0818 0.369422 11.2718L6.05321 15.1979L0.305555 19.0607C0.0501042 19.2507 -0.0776175 19.5673 0.0501081 19.8839C0.113971 20.2005 0.433289 20.3905 0.752603 20.3905L7.71364 20.2638L5.28684 26.6596C5.15912 26.9762 5.28686 27.2929 5.54231 27.4828C5.79776 27.6728 6.11707 27.6728 6.37252 27.4828L11.9286 23.3034L13.8445 29.9525C13.9083 30.2691 14.2276 30.4591 14.547 30.4591C14.8663 30.4591 15.1217 30.2691 15.2494 29.9525L17.2931 23.3668L22.7853 27.6095C22.9769 27.7361 23.2323 27.7995 23.4239 27.7361C23.4878 27.7361 23.5516 27.6728 23.6155 27.6095C23.8709 27.4195 23.9986 27.1029 23.8709 26.7863L21.5719 20.3272L28.5329 20.5805C28.8522 20.5805 29.1077 20.3905 29.2354 20.0739C29.3631 19.7573 29.2354 19.4406 28.9799 19.2507L23.2962 15.3245L29.0438 11.4617C29.2993 11.2718 29.427 10.9551 29.2993 10.6385C29.1715 10.3852 28.9161 10.1952 28.5968 10.1952Z" transform="translate(198.312)" fill="#F3C300"/>
<path d="M45.7896 16.5277C45.7258 15.6412 45.0233 15.3245 44.2569 15.7678L43.299 16.3377L40.7445 17.9208L38.1899 19.504L35.6354 21.0871L33.0809 22.6702L30.5264 24.2533L27.9719 25.8364L25.7367 27.2295C25.609 27.2929 25.4812 27.3562 25.4174 27.3562C25.3535 27.3562 25.1619 27.4195 25.0342 27.4195C24.5872 27.4195 24.1401 27.2295 23.8847 26.7863C23.5654 26.2164 23.6292 25.5198 24.1401 25.1398L25.4174 24.3799L27.9719 22.7968L30.5264 21.2137L33.0809 19.6306L35.6354 18.0475L38.1899 16.4644L40.7445 14.8813L43.299 13.2982L44.4485 12.6016C45.2787 12.095 45.5342 10.9551 45.0233 10.1319C44.6401 9.562 44.0015 9.24538 43.299 9.30871C43.0435 9.30871 42.7242 9.43535 42.5326 9.562L40.8083 10.6385L38.2538 12.2216L35.6993 13.8047L33.1448 15.3879L30.5903 16.971L28.0358 18.5541L25.4813 20.1372L22.9267 21.7203L20.3722 23.3034L17.8177 24.8865L16.1573 25.8997C15.9657 25.9631 15.838 26.0264 15.6464 26.0264C15.5187 26.0264 15.3909 26.0264 15.3271 25.9631C15.0078 25.8997 14.7523 25.7098 14.5607 25.3931C14.1775 24.8232 14.3053 24.1266 14.8162 23.6834L15.3271 23.3668L17.8816 21.7836L20.4361 20.2005L22.9906 18.6174L25.5451 17.0343L28.0996 15.4512L30.6541 13.8681L33.2087 12.285L35.7632 10.7018L38.3177 9.11873L40.8722 7.53562L41.1276 7.40897C41.9579 6.90237 42.2133 5.76253 41.7024 4.93931C41.5108 4.62269 41.1915 4.36939 40.8722 4.24274C40.3613 4.05277 39.7227 4.05277 39.2118 4.36939L38.3177 4.93931L35.7632 6.52243L33.2087 8.10554L30.6541 9.68865L28.0996 11.2718L25.5451 12.8549L22.9906 14.438L20.4361 16.0211L17.8816 17.6042L16.8598 18.2375C16.6682 18.3008 16.5405 18.3641 16.3489 18.3641C15.9657 18.3641 15.5825 18.1741 15.3271 17.8575C15.2632 17.7942 15.2632 17.7942 15.1993 17.7309C14.88 17.2243 14.9439 16.591 15.3271 16.2111C15.3909 16.0844 15.5187 16.0211 15.6464 15.9578L17.8816 14.5646L20.4361 12.9815L22.9906 11.3984L25.5451 9.8153L28.0996 8.23219L30.6541 6.64908L33.2087 5.06596L35.5077 3.6095C35.6354 3.54617 35.6993 3.48285 35.7632 3.41952C36.2102 3.03958 36.0825 2.53298 35.7632 2.15303C35.6354 2.02638 35.5077 1.89974 35.3161 1.83641C34.6136 1.58311 33.9111 1.32981 33.2087 1.13984C32.3784 0.886543 31.5482 0.696569 30.6541 0.506596C29.8239 0.379947 28.9937 0.253297 28.0996 0.126648C27.2694 0.0633238 26.4392 0 25.5451 0C25.2897 0 25.0342 0 24.7788 0H22.9906H20.4361H17.8816H15.3271H12.7726H10.218H7.66354H5.10902H2.55451H1.91588C0.894079 0 0 0.823219 0 1.89974V48.5699C0 49.5831 0.830216 50.4697 1.91588 50.4697H2.55451H5.10902H7.66354H10.218H12.1978C12.3894 50.4697 12.581 50.4063 12.7726 50.4063C13.5389 50.153 14.1137 49.4565 14.1137 48.6332V37.8047C14.1137 36.9815 14.6246 36.3483 15.3271 36.095C15.5187 36.0317 15.7741 35.9683 16.0296 35.9683H17.8816H20.4361H22.9906H24.0763C24.5872 35.9683 25.0342 35.9683 25.5451 35.905C26.4392 35.8417 27.2694 35.7784 28.0996 35.715C28.9937 35.5884 29.8239 35.4617 30.6541 35.3351C31.5482 35.1451 32.3784 34.9551 33.2087 34.7018C34.1027 34.4485 34.933 34.1319 35.7632 33.752C36.6572 33.372 37.4875 32.9288 38.3177 32.4222C39.2118 31.8522 40.1058 31.1557 40.8722 30.4591C41.8301 29.5726 42.7242 28.496 43.4267 27.3562C45.0871 24.7599 45.9812 21.5937 45.9812 17.8575V17.7309C45.7896 17.2876 45.7896 16.9076 45.7896 16.5277Z" transform="translate(155.891 17.6042)" fill="url(#paint5_linear)"/>
<defs>
<linearGradient id="paint0_linear" x2="1" gradientUnits="userSpaceOnUse" gradientTransform="translate(-0.048855 6.02169) scale(38.7131 38.3868)">
<stop offset="0.00550881" stop-color="#00B3E6"/>
<stop offset="1" stop-color="#1B93D0"/>
</linearGradient>
<linearGradient id="paint1_linear" x2="1" gradientUnits="userSpaceOnUse" gradientTransform="translate(-0.00734422 4.76137) scale(41.2551 40.9074)">
<stop offset="0.00550881" stop-color="#00B3E6"/>
<stop offset="1" stop-color="#1B93D0"/>
</linearGradient>
<linearGradient id="paint2_linear" x2="1" gradientUnits="userSpaceOnUse" gradientTransform="translate(-0.00734422 4.76137) scale(41.2551 40.9074)">
<stop offset="0.00550881" stop-color="#00B3E6"/>
<stop offset="1" stop-color="#1B93D0"/>
</linearGradient>
<linearGradient id="paint3_linear" x2="1" gradientUnits="userSpaceOnUse" gradientTransform="translate(-0.0202685 -2.20648) scale(55.7124 55.2428)">
<stop offset="0.00550881" stop-color="#00B3E6"/>
<stop offset="1" stop-color="#1B93D0"/>
</linearGradient>
<linearGradient id="paint4_linear" x2="1" gradientUnits="userSpaceOnUse" gradientTransform="translate(-0.0202685 -2.20648) scale(55.7124 55.2428)">
<stop offset="0.00550881" stop-color="#00B3E6"/>
<stop offset="1" stop-color="#1B93D0"/>
</linearGradient>
<linearGradient id="paint5_linear" x2="1" gradientUnits="userSpaceOnUse" gradientTransform="translate(-0.084235 2.40108) scale(45.8886 45.5018)">
<stop offset="0.00550881" stop-color="#00B3E6"/>
<stop offset="1" stop-color="#1B93D0"/>
</linearGradient>
</defs>
</svg>
