<?xml version="1.0" encoding="utf-8"?>
<!-- Generator: Adobe Illustrator 22.0.1, SVG Export Plug-In . SVG Version: 6.00 Build 0)  -->
<svg version="1.1" id="Layer_1" xmlns="http://www.w3.org/2000/svg" xmlns:xlink="http://www.w3.org/1999/xlink" x="0px" y="0px"
	 width="396px" height="111px" viewBox="0 0 396 111" style="enable-background:new 0 0 396 111;" xml:space="preserve">
<style type="text/css">
	.st0{fill:#00B2E5;}
	.st1{fill:#76777A;}
	.st2{fill:#F4C416;}
</style>
<g>
	<g>
		<g>
			<polygon class="st0" points="5.3,61.1 5.3,103.3 37.5,103.3 37.5,93 17,93 17,61.1 			"/>
		</g>
		<g>
			<polygon class="st0" points="43,61.1 43,103.3 77.3,103.3 77.3,93.3 54.6,93.3 54.6,86.6 74.9,86.6 74.9,77.4 54.6,77.4 54.6,71 
				77,71 77,61.1 			"/>
		</g>
		<g>
			<path class="st0" d="M103.9,74.6l4.7,12h-9.5L103.9,74.6z M98.3,60.8l-18,42.5h12.3l3-7.5H112l3.1,7.5h12.6l-18-42.5H98.3z"/>
		</g>
		<g>
			<g>
				<path class="st0" d="M149.4,82.1c4.2,0,6.7-2.2,6.7-5.5v-0.1c0-3.6-2.5-5.6-6.8-5.6h-5.5v11.2H149.4z M132.2,61.1h18.1
					c10.7,0,17.6,5.5,17.6,14.8V76c0,10-7.7,15.2-18.2,15.2h-5.8v12.1h-11.7V61.1z"/>
			</g>
			<g>
				<path class="st1" d="M174.2,78.8h3.8v24.5h-3.8V78.8z"/>
				<path class="st1" d="M185.1,78.8h3.8v3.4c1.6-1.8,4.6-3.9,7.8-3.9c3.9,0,6,2.4,6,6.8v18.2h-3.7V85.9c0-2.9-1-4.3-3.5-4.3
					c-2.4,0-4.9,1.8-6.6,3.5v18.2h-3.8V78.8z"/>
				<path class="st1" d="M209.3,78.8h3.8v3.4c1.6-1.8,4.6-3.9,7.8-3.9c3.9,0,6,2.4,6,6.8v18.2h-3.7V85.9c0-2.9-1-4.3-3.5-4.3
					c-2.4,0-4.9,1.8-6.6,3.5v18.2h-3.8V78.8z"/>
				<path class="st1" d="M232.3,91c0-8.5,4.2-12.8,9.7-12.8c5.4,0,9.7,4.3,9.7,12.8c0,8.4-4.2,12.8-9.7,12.8
					C236.6,103.8,232.3,99.4,232.3,91z M247.9,91c0-5.3-1.8-9.5-5.9-9.5c-3.9,0-5.9,3.8-5.9,9.5c0,5.3,1.7,9.6,5.9,9.6
					C245.9,100.6,247.9,96.8,247.9,91z"/>
				<path class="st1" d="M254.3,78.8h3.8l4,13.9c0.6,2.1,1,3.8,1.8,6.6h0.1c0.6-2.7,1.1-4.4,1.7-6.6l3.9-13.9h3.5l-7.4,24.6h-3.9
					L254.3,78.8z"/>
				<path class="st1" d="M275.8,97.5c0-4.9,4.1-8.5,13.7-10.4v-1.5c0-2.8-1.2-4.1-3.7-4.1c-3,0-5.4,1.5-7.2,3.3l-2.1-2.3
					c2.6-2.6,5.8-4.3,9.7-4.3c4.8,0,7,2.6,7,7.4v11.6c0,3,0.1,4.8,0.6,6H290c-0.3-1-0.5-1.8-0.5-3.2c-2,2.2-4.7,3.5-7.8,3.5
					C277.9,103.6,275.8,101.3,275.8,97.5z M289.5,97.3v-7.5c-7.6,1.6-10,4.2-10,7.2c0,2.5,1.3,3.6,3.4,3.6
					C285.4,100.5,287.7,99.2,289.5,97.3z"/>
				<path class="st1" d="M301.3,97.7V81.9h-3.6v-3.1h3.6V70h3.7v8.7h5.4v3.1H305v15c0,2.5,0.6,3.6,3.3,3.6c0.7,0,1.6-0.1,2.1-0.3v3
					c-0.6,0.2-1.9,0.3-2.9,0.3C303,103.5,301.3,102,301.3,97.7z"/>
				<path class="st1" d="M316.1,78.8h3.8v24.5h-3.8V78.8z"/>
				<path class="st1" d="M325.8,91c0-8.5,4.2-12.8,9.7-12.8c5.4,0,9.7,4.3,9.7,12.8c0,8.4-4.2,12.8-9.7,12.8
					C330.1,103.8,325.8,99.4,325.8,91z M341.4,91c0-5.3-1.8-9.5-5.9-9.5c-3.9,0-5.9,3.8-5.9,9.5c0,5.3,1.7,9.6,5.9,9.6
					C339.4,100.6,341.4,96.8,341.4,91z"/>
				<path class="st1" d="M350.9,78.8h3.8v3.4c1.6-1.8,4.5-3.9,7.8-3.9c3.9,0,6,2.4,6,6.8v18.2h-3.7V85.9c0-2.9-1-4.3-3.5-4.3
					c-2.4,0-4.9,1.8-6.6,3.5v18.2h-3.8V78.8z"/>
				<path class="st1" d="M373.1,98.8l2.6-1.9c1.6,2.5,4,3.8,6.6,3.8c3.1,0,4.9-1.3,4.9-3.6c0-6-12.8-3.6-12.8-12.3
					c0-3.9,3.2-6.6,7.8-6.6c3.6,0,6.3,1.7,8.1,4.4l-2.5,2c-1.3-1.9-3.1-3.3-5.6-3.3c-2.8,0-4.1,1.4-4.1,3.3
					c0,6.1,12.7,3.3,12.7,12.3c0,4.3-3.8,6.9-8.4,6.9C378,103.8,375,101.8,373.1,98.8z"/>
			</g>
		</g>
		<g>
			<g>
				<path class="st1" d="M309,52.8l2.2,0.8l0-1.2c-5.7-6.3-16.3-13.9-34.3-13.9c-24.6,0-37.4,16.9-41.4,23.5
					c-4-3.8-13.7-11.2-29-11.2c-20,0-30.8,14.7-31.3,15.3c-0.6,0.9-0.4,2.2,0.5,2.8c0.4,0.3,0.8,0.4,1.2,0.4c0.6,0,1.2-0.3,1.6-0.8
					c0.1-0.1,10-13.6,28-13.6c18,0,27.8,11.7,27.9,11.8c0.4,0.5,1.1,0.8,1.8,0.7c0.7-0.1,1.3-0.5,1.6-1.1c0.5-1,11.4-23.6,39.2-23.6
					c14.8,0,24.1,5.5,29.5,10.7C307.1,52.7,308.1,52.5,309,52.8z"/>
			</g>
			<path class="st2" d="M329.1,61.6l-5.3-1.6l3.4-4.3c0.1-0.2,0.2-0.5,0-0.7c-0.1-0.2-0.4-0.3-0.6-0.2l-5.2,1.8l0.2-5.5
				c0-0.2-0.2-0.5-0.4-0.6c-0.2-0.1-0.5,0-0.6,0.2l-3.1,4.5l-3.1-4.5c-0.1-0.2-0.4-0.3-0.6-0.2c-0.2,0.1-0.4,0.3-0.4,0.5l0.1,5.5
				l-5.2-1.9c-0.2-0.1-0.5,0-0.6,0.2c-0.1,0.2-0.1,0.5,0,0.7L311,60l-5.3,1.5c-0.2,0.1-0.4,0.3-0.4,0.5c0,0.2,0.2,0.5,0.4,0.5
				l5.3,1.6l-3.4,4.3c-0.2,0.2-0.2,0.5,0,0.7c0.2,0.2,0.4,0.3,0.6,0.2l5.2-1.8l-0.2,5.5c0,0.2,0.2,0.5,0.4,0.6
				c0.2,0.1,0.5,0,0.6-0.2l3.1-4.5l3.1,4.5c0.1,0.2,0.3,0.2,0.5,0.2l0.3-0.1c0.2-0.1,0.3-0.3,0.3-0.5l-0.1-5.5l5.2,1.8
				c0.2,0.1,0.5,0,0.6-0.2c0.1-0.2,0.1-0.5,0-0.7l-3.3-4.4l5.3-1.5c0.2-0.1,0.4-0.3,0.4-0.5C329.5,61.9,329.3,61.7,329.1,61.6z"/>
		</g>
	</g>
	<path class="st1" d="M387.6,8.6c-0.3-1.1-1.5-1.6-2.5-1.3c-0.9,0.3-21.5,6.9-40.3,21c-9.5,7.2-16.7,15.3-21.4,21.7
		c0.2,0.4,0.3,0.8,0.3,1.3l-0.1,2.4l2.2-0.8c0.2-0.1,0.4-0.1,0.5-0.1c4.6-6.2,11.6-14.2,20.9-21.2c18.2-13.7,38.9-20.3,39.1-20.4
		C387.3,10.8,387.9,9.7,387.6,8.6z"/>
</g>
</svg>
