<svg width="95" height="40" viewBox="0 0 95 40" fill="none" xmlns="http://www.w3.org/2000/svg">
<path d="M0 0.765172V0.606861C0 0.263853 0.212876 0 0.665237 0C1.1176 0 1.33047 0.237468 1.33047 0.606861V0.765172C1.33047 1.10818 1.1176 1.37203 0.665237 1.37203C0.212876 1.37203 0 1.10818 0 0.765172ZM0.106438 2.61214H1.19743V8.68073H0.106438V2.61214Z" transform="translate(0 31.1609)" fill="#00B3E6"/>
<path d="M0 6.20052V0.131926H1.09099V1.13456H1.14421C1.43691 0.474933 1.94249 0 2.87383 0C4.12447 0 4.89615 0.844326 4.89615 2.3219V6.20052H3.80516V2.48021C3.80516 1.45119 3.37941 0.923481 2.5279 0.923481C1.80945 0.923481 1.1176 1.29288 1.1176 2.03166V6.20052H0Z" transform="translate(3.37939 33.6412)" fill="#00B3E6"/>
<path d="M0 6.20052V0.131926H1.09099V1.13456H1.14421C1.43691 0.474933 1.94249 0 2.87383 0C4.12447 0 4.89615 0.844326 4.89615 2.3219V6.20052H3.80516V2.48021C3.80516 1.45119 3.37941 0.923481 2.5279 0.923481C1.80945 0.923481 1.1176 1.29288 1.1176 2.03166V6.20052H0Z" transform="translate(10.3782 33.6412)" fill="#00B3E6"/>
<path d="M0 3.16622C0 1.2401 1.1176 0 2.794 0C4.47039 0 5.58799 1.2401 5.58799 3.16622C5.58799 5.09235 4.47039 6.33245 2.794 6.33245C1.1176 6.33245 0 5.11873 0 3.16622ZM4.39057 3.64116V2.71768C4.39057 1.53034 3.72533 0.949867 2.76739 0.949867C1.80945 0.949867 1.14421 1.55673 1.14421 2.71768V3.64116C1.14421 4.82849 1.80945 5.40897 2.76739 5.40897C3.75194 5.40897 4.39057 4.82849 4.39057 3.64116Z" transform="translate(16.9507 33.6412)" fill="#00B3E6"/>
<path d="M2.10215 6.0686L0 0H1.09099L2.10215 2.90237L2.74078 4.98681H2.82061L3.45923 2.90237L4.47039 0H5.53477L3.40601 6.0686H2.10215Z" transform="translate(23.3896 33.7731)" fill="#00B3E6"/>
<path d="M4.92276 6.20052C4.25752 6.20052 3.93821 5.77836 3.85838 5.19789H3.80516C3.56567 5.93667 2.90044 6.35884 2.02232 6.35884C0.745068 6.35884 0 5.64644 0 4.53826C0 3.37731 0.851505 2.74406 2.60773 2.74406H3.77855V2.18997C3.77855 1.37203 3.3528 0.923481 2.42147 0.923481C1.70301 0.923481 1.25065 1.26649 0.931332 1.79419L0.266095 1.18733C0.638628 0.527702 1.35709 0 2.47468 0C3.99143 0 4.86954 0.765172 4.86954 2.08443V5.27704H5.56139V6.20052H4.92276ZM3.77855 4.43271V3.48285H2.60773C1.59657 3.48285 1.14421 3.79947 1.14421 4.35356V4.59103C1.14421 5.14512 1.56996 5.46174 2.26181 5.46174C3.13992 5.46174 3.77855 5.03958 3.77855 4.43271Z" transform="translate(29.7234 33.6412)" fill="#00B3E6"/>
<path d="M2.12876 7.70448C1.38369 7.70448 0.957944 7.25594 0.957944 6.56992V2.58575H0V1.66227H0.53219C0.957942 1.66227 1.06438 1.50396 1.06438 1.10818V0H2.04893V1.66227H3.3528V2.58575H2.04893V6.80739H3.27297V7.73087H2.12876V7.70448Z" transform="translate(36.1892 32.1372)" fill="#00B3E6"/>
<path d="M0 0.765172V0.606861C0 0.263853 0.212876 0 0.665237 0C1.1176 0 1.33047 0.237468 1.33047 0.606861V0.765172C1.33047 1.10818 1.1176 1.37203 0.665237 1.37203C0.186267 1.37203 0 1.10818 0 0.765172ZM0.10644 2.61214H1.19743V8.68073H0.10644V2.61214Z" transform="translate(41.1646 31.1609)" fill="#00B3E6"/>
<path d="M0 3.16622C0 1.2401 1.1176 0 2.794 0C4.4704 0 5.58799 1.2401 5.58799 3.16622C5.58799 5.09235 4.4704 6.33245 2.794 6.33245C1.1176 6.33245 0 5.11873 0 3.16622ZM4.41718 3.64116V2.71768C4.41718 1.53034 3.75194 0.949867 2.794 0.949867C1.83606 0.949867 1.17082 1.55673 1.17082 2.71768V3.64116C1.17082 4.82849 1.83606 5.40897 2.794 5.40897C3.75194 5.40897 4.41718 4.82849 4.41718 3.64116Z" transform="translate(44.0918 33.6412)" fill="#00B3E6"/>
<path d="M0 6.20052V0.131926H1.09099V1.13456H1.14421C1.43691 0.474933 1.94249 0 2.87383 0C4.12447 0 4.89615 0.844326 4.89615 2.3219V6.20052H3.80516V2.48021C3.80516 1.45119 3.37941 0.923481 2.5279 0.923481C1.80945 0.923481 1.1176 1.29288 1.1176 2.03166V6.20052H0Z" transform="translate(51.4092 33.6412)" fill="#00B3E6"/>
<path d="M0 5.1715L0.745067 4.53826C1.19743 5.11873 1.78284 5.43535 2.5279 5.43535C3.29958 5.43535 3.72533 5.09235 3.72533 4.53826C3.72533 4.08971 3.48585 3.77309 2.74078 3.66755L2.20859 3.58839C1.03777 3.43008 0.212877 2.95515 0.212877 1.82058C0.212877 0.633246 1.14421 0 2.42147 0C3.45924 0 4.09787 0.369394 4.63006 0.976254L3.93821 1.63588C3.6455 1.24011 3.11331 0.897098 2.39486 0.897098C1.64979 0.897098 1.27726 1.2401 1.27726 1.74142C1.27726 2.26913 1.62318 2.5066 2.34164 2.61214L2.87383 2.69129C4.23091 2.90238 4.7631 3.48285 4.7631 4.40633C4.7631 5.59367 3.85838 6.33245 2.42147 6.33245C1.30387 6.35884 0.5588 5.8839 0 5.1715Z" transform="translate(57.8494 33.6412)" fill="#00B3E6"/>
<path d="M0.585409 0C0.266095 0 0 0.263852 0 0.580475V20.4222C0 20.7388 0.266095 21.0026 0.585409 21.0026H15.5133C15.8327 21.0026 16.0987 20.7388 16.0987 20.4222V16.4908C16.0987 16.1741 15.8327 15.9103 15.5133 15.9103H6.4395C6.12018 15.9103 5.85409 15.6464 5.85409 15.3298V0.60686C5.85409 0.290237 5.58799 0.0263853 5.26868 0.0263853H0.585409V0Z" transform="translate(0.265869 7.30871)" fill="url(#paint0_linear)"/>
<path d="M0.585409 0C0.266095 0 0 0.263852 0 0.580475V20.4222C0 20.7388 0.266095 21.0026 0.585409 21.0026H15.5133C15.8327 21.0026 16.0987 20.7388 16.0987 20.4222V16.4908C16.0987 16.1741 15.8327 15.9103 15.5133 15.9103H6.4395C6.12018 15.9103 5.85409 15.6464 5.85409 15.3298V0.60686C5.85409 0.290237 5.58799 0.0263853 5.26868 0.0263853H0.585409V0Z" transform="translate(0.265869 7.30871)" fill="#01AEE3"/>
<path d="M0.612019 0C0.266096 0 0 0.263852 0 0.60686V20.4222C0 20.7652 0.266096 21.029 0.612019 21.029H16.6043C16.9502 21.029 17.2163 20.7652 17.2163 20.4222V16.6491C17.2163 16.3061 16.9502 16.0422 16.6043 16.0422H6.41289C6.06696 16.0422 5.80087 15.7784 5.80087 15.4354V13.2982C5.80087 12.9551 6.06696 12.6913 6.41289 12.6913H15.3803C15.7262 12.6913 15.9923 12.4274 15.9923 12.0844V8.73351C15.9923 8.3905 15.7262 8.12665 15.3803 8.12665H6.41289C6.06696 8.12665 5.80087 7.8628 5.80087 7.51979V5.5409C5.80087 5.19789 6.06696 4.93404 6.41289 4.93404H16.4447C16.7906 4.93404 17.0567 4.67018 17.0567 4.32718V0.60686C17.0567 0.263852 16.7906 0 16.4447 0H0.612019Z" transform="translate(19.6907 7.30871)" fill="url(#paint1_linear)"/>
<path d="M0.612019 0C0.266096 0 0 0.263852 0 0.60686V20.4222C0 20.7652 0.266096 21.029 0.612019 21.029H16.6043C16.9502 21.029 17.2163 20.7652 17.2163 20.4222V16.6491C17.2163 16.3061 16.9502 16.0422 16.6043 16.0422H6.41289C6.06696 16.0422 5.80087 15.7784 5.80087 15.4354V13.2982C5.80087 12.9551 6.06696 12.6913 6.41289 12.6913H15.3803C15.7262 12.6913 15.9923 12.4274 15.9923 12.0844V8.73351C15.9923 8.3905 15.7262 8.12665 15.3803 8.12665H6.41289C6.06696 8.12665 5.80087 7.8628 5.80087 7.51979V5.5409C5.80087 5.19789 6.06696 4.93404 6.41289 4.93404H16.4447C16.7906 4.93404 17.0567 4.67018 17.0567 4.32718V0.60686C17.0567 0.263852 16.7906 0 16.4447 0H0.612019Z" transform="translate(19.6907 7.30871)" fill="url(#paint2_linear)"/>
<path d="M9.43066 12.2427L11.1071 8.02111C11.2667 7.62533 11.8255 7.62533 11.9852 8.02111L13.6616 12.2427C13.7946 12.5594 13.5551 12.876 13.2092 12.876H9.85641C9.5371 12.876 9.29762 12.5594 9.43066 12.2427ZM9.08474 0C8.89847 0 8.7122 0.105541 8.65899 0.290238L0.0375096 20.5013C-0.0955379 20.8179 0.143945 21.1609 0.463259 21.1609H5.59889C5.78516 21.1609 5.97143 21.0554 6.05125 20.8707L7.32851 17.7045C7.40834 17.5198 7.568 17.4142 7.78087 17.4142H15.3114C15.4976 17.4142 15.6839 17.5198 15.7637 17.7045L17.0676 20.8707C17.1474 21.0554 17.3071 21.1609 17.5199 21.1609H22.7886C23.1346 21.1609 23.3474 20.8179 23.2144 20.5013L14.5929 0.290238C14.5131 0.105541 14.3534 0 14.1672 0H9.08474Z" transform="translate(39.5579 7.15039)" fill="url(#paint3_linear)"/>
<path d="M9.43066 12.2427L11.1071 8.02111C11.2667 7.62533 11.8255 7.62533 11.9852 8.02111L13.6616 12.2427C13.7946 12.5594 13.5551 12.876 13.2092 12.876H9.85641C9.5371 12.876 9.29762 12.5594 9.43066 12.2427ZM9.08474 0C8.89847 0 8.7122 0.105541 8.65899 0.290238L0.0375096 20.5013C-0.0955379 20.8179 0.143945 21.1609 0.463259 21.1609H5.59889C5.78516 21.1609 5.97143 21.0554 6.05125 20.8707L7.32851 17.7045C7.40834 17.5198 7.568 17.4142 7.78087 17.4142H15.3114C15.4976 17.4142 15.6839 17.5198 15.7637 17.7045L17.0676 20.8707C17.1474 21.0554 17.3071 21.1609 17.5199 21.1609H22.7886C23.1346 21.1609 23.3474 20.8179 23.2144 20.5013L14.5929 0.290238C14.5131 0.105541 14.3534 0 14.1672 0H9.08474Z" transform="translate(39.5579 7.15039)" fill="url(#paint4_linear)"/>
<path d="M11.9153 4.24802L9.01488 4.30079L10.026 1.6095C10.0793 1.47757 10.026 1.34565 9.91961 1.26649C9.81317 1.18733 9.68012 1.18733 9.57369 1.26649L7.25866 2.98153L6.46037 0.211082C6.43376 0.0791557 6.30072 0 6.16767 0C6.03463 0 5.92819 0.0791557 5.87497 0.211082L5.02346 2.95514L2.73504 1.18733C2.6286 1.10818 2.49556 1.10818 2.38912 1.18733C2.28268 1.26649 2.22947 1.39842 2.28269 1.53034L3.24063 4.24802L0.340187 4.14248C0.20714 4.14248 0.100708 4.22164 0.0474895 4.35356C-0.00572952 4.48549 0.0474879 4.61741 0.153926 4.69657L2.52217 6.33245L0.127315 7.94195C0.0208767 8.02111 -0.0323406 8.15303 0.0208784 8.28496C0.0474879 8.41689 0.180537 8.49604 0.313584 8.49604L3.21402 8.44327L2.20285 11.1082C2.14963 11.2401 2.20286 11.372 2.3093 11.4512C2.41573 11.5303 2.54878 11.5303 2.65522 11.4512L4.97025 9.70976L5.76853 12.4802C5.79514 12.6121 5.92818 12.6913 6.06123 12.6913C6.19428 12.6913 6.30072 12.6121 6.35394 12.4802L7.20544 9.73615L9.49386 11.504C9.57369 11.5567 9.68013 11.5831 9.75996 11.5567C9.78656 11.5567 9.81317 11.5303 9.83978 11.504C9.94622 11.4248 9.99944 11.2929 9.94622 11.1609L8.98827 8.46966L11.8887 8.5752C12.0218 8.5752 12.1282 8.49604 12.1814 8.36411C12.2346 8.23219 12.1814 8.10026 12.075 8.02111L9.70673 6.38522L12.1016 4.77572C12.208 4.69657 12.2612 4.56464 12.208 4.43272C12.1548 4.32718 12.0484 4.24802 11.9153 4.24802Z" transform="translate(82.6282)" fill="#F3C300"/>
<path d="M19.079 6.88654C19.0524 6.51715 18.7597 6.38522 18.4404 6.56992L18.0412 6.80739L16.9769 7.46702L15.9125 8.12665L14.8481 8.78628L13.7837 9.44591L12.7193 10.1055L11.655 10.7652L10.7236 11.3456C10.6704 11.372 10.6172 11.3984 10.5906 11.3984C10.564 11.3984 10.4841 11.4248 10.4309 11.4248C10.2447 11.4248 10.0584 11.3456 9.95195 11.1609C9.8189 10.9235 9.84551 10.6332 10.0584 10.4749L10.5906 10.1583L11.655 9.49868L12.7193 8.83905L13.7837 8.17942L14.8481 7.51979L15.9125 6.86016L16.9769 6.20053L18.0412 5.5409L18.5202 5.25066C18.8661 5.03958 18.9726 4.56464 18.7597 4.22164C18.6 3.98417 18.3339 3.85224 18.0412 3.87863C17.9348 3.87863 17.8018 3.9314 17.7219 3.98417L17.0035 4.43272L15.9391 5.09235L14.8747 5.75198L13.8103 6.41161L12.7459 7.07124L11.6816 7.73087L10.6172 8.3905L9.55281 9.05013L8.48843 9.70976L7.42405 10.3694L6.7322 10.7916C6.65237 10.8179 6.59916 10.8443 6.51933 10.8443C6.46611 10.8443 6.41289 10.8443 6.38628 10.8179C6.25323 10.7916 6.14679 10.7124 6.06696 10.5805C5.90731 10.343 5.96052 10.0528 6.1734 9.86807L6.38628 9.73615L7.45066 9.07652L8.51504 8.41688L9.57942 7.75725L10.6438 7.09762L11.7082 6.43799L12.7726 5.77836L13.8369 5.11873L14.9013 4.4591L15.9657 3.79947L17.0301 3.13984L17.1365 3.08707C17.4824 2.87599 17.5889 2.40105 17.376 2.05805C17.2962 1.92612 17.1631 1.82058 17.0301 1.76781C16.8172 1.68865 16.5511 1.68865 16.3382 1.82058L15.9657 2.05805L14.9013 2.71768L13.8369 3.37731L12.7726 4.03694L11.7082 4.69657L10.6438 5.3562L9.57942 6.01583L8.51504 6.67546L7.45066 7.33509L7.02491 7.59894C6.94508 7.62533 6.89186 7.65171 6.81203 7.65171C6.65238 7.65171 6.49272 7.57256 6.38628 7.44063C6.35967 7.41425 6.35967 7.41425 6.33306 7.38786C6.20001 7.17678 6.22662 6.91293 6.38628 6.75462C6.41289 6.70185 6.46611 6.67546 6.51933 6.64908L7.45066 6.0686L8.51504 5.40897L9.57942 4.74934L10.6438 4.08971L11.7082 3.43008L12.7726 2.77045L13.8369 2.11082L14.7949 1.50396C14.8481 1.47757 14.8747 1.45119 14.9013 1.4248C15.0876 1.26649 15.0344 1.05541 14.9013 0.897097C14.8481 0.844327 14.7949 0.791557 14.7151 0.765171C14.4223 0.65963 14.1296 0.554089 13.8369 0.474934C13.491 0.369393 13.1451 0.290237 12.7726 0.211082C12.4266 0.158311 12.0807 0.105541 11.7082 0.0527701C11.3623 0.0263849 11.0163 0 10.6438 0C10.5374 0 10.4309 0 10.3245 0H9.57942H8.51504H7.45066H6.38628H5.3219H4.25752H3.19314H2.12876H1.06438H0.798285C0.372533 0 0 0.343008 0 0.791557V20.2375C0 20.6596 0.345923 21.029 0.798285 21.029H1.06438H2.12876H3.19314H4.25752H5.08242C5.16224 21.029 5.24207 21.0026 5.3219 21.0026C5.64121 20.8971 5.8807 20.6069 5.8807 20.2639V15.752C5.8807 15.409 6.09358 15.1451 6.38628 15.0396C6.46611 15.0132 6.57255 14.9868 6.67899 14.9868H7.45066H8.51504H9.57942H10.0318C10.2447 14.9868 10.4309 14.9868 10.6438 14.9604C11.0163 14.934 11.3623 14.9076 11.7082 14.8813C12.0807 14.8285 12.4266 14.7757 12.7726 14.723C13.1451 14.6438 13.491 14.5646 13.8369 14.4591C14.2095 14.3536 14.5554 14.2216 14.9013 14.0633C15.2739 13.905 15.6198 13.7203 15.9657 13.5092C16.3382 13.2718 16.7108 12.9815 17.0301 12.6913C17.4292 12.3219 17.8018 11.8733 18.0945 11.3984C18.7863 10.3166 19.1588 8.99736 19.1588 7.44063V7.38786C19.079 7.20317 19.079 7.04485 19.079 6.88654Z" transform="translate(64.9536 7.33509)" fill="url(#paint5_linear)"/>
<defs>
<linearGradient id="paint0_linear" x2="1" gradientUnits="userSpaceOnUse" gradientTransform="translate(-0.0203563 2.50904) scale(16.1304 15.9945)">
<stop offset="0.00550881" stop-color="#00B3E6"/>
<stop offset="1" stop-color="#1B93D0"/>
</linearGradient>
<linearGradient id="paint1_linear" x2="1" gradientUnits="userSpaceOnUse" gradientTransform="translate(-0.00306009 1.9839) scale(17.1896 17.0447)">
<stop offset="0.00550881" stop-color="#00B3E6"/>
<stop offset="1" stop-color="#1B93D0"/>
</linearGradient>
<linearGradient id="paint2_linear" x2="1" gradientUnits="userSpaceOnUse" gradientTransform="translate(-0.00306009 1.9839) scale(17.1896 17.0447)">
<stop offset="0.00550881" stop-color="#00B3E6"/>
<stop offset="1" stop-color="#1B93D0"/>
</linearGradient>
<linearGradient id="paint3_linear" x2="1" gradientUnits="userSpaceOnUse" gradientTransform="translate(-0.00844522 -0.919367) scale(23.2135 23.0178)">
<stop offset="0.00550881" stop-color="#00B3E6"/>
<stop offset="1" stop-color="#1B93D0"/>
</linearGradient>
<linearGradient id="paint4_linear" x2="1" gradientUnits="userSpaceOnUse" gradientTransform="translate(-0.00844522 -0.919367) scale(23.2135 23.0178)">
<stop offset="0.00550881" stop-color="#00B3E6"/>
<stop offset="1" stop-color="#1B93D0"/>
</linearGradient>
<linearGradient id="paint5_linear" x2="1" gradientUnits="userSpaceOnUse" gradientTransform="translate(-0.0350979 1.00045) scale(19.1203 18.9591)">
<stop offset="0.00550881" stop-color="#00B3E6"/>
<stop offset="1" stop-color="#1B93D0"/>
</linearGradient>
</defs>
</svg>
